<?xml version="1.0" encoding="utf-8"?>
<!-- Generator: Adobe Illustrator 18.0.0, SVG Export Plug-In . SVG Version: 6.00 Build 0)  -->
<!DOCTYPE svg PUBLIC "-//W3C//DTD SVG 1.1//EN" "http://www.w3.org/Graphics/SVG/1.1/DTD/svg11.dtd">
<svg version="1.1" id="Layer_1" xmlns="http://www.w3.org/2000/svg" xmlns:xlink="http://www.w3.org/1999/xlink" x="0px" y="0px"
	 viewBox="0 0 512 512" enable-background="new 0 0 512 512" xml:space="preserve">
<g>
	<g>
		<g>
			<g>
				<g>
					<path d="M487.8,430.7c-30.9,0-61.9,0-92.8,0c-63.5,0-127,0-190.5,0c-52.1,0-104.1,0-156.2,0c-8,0-16,0-24,0
						c2.5,2.5,5,5,7.5,7.5c0-24.5,0-49,0-73.6c0-9.6,0-19.2,0-28.8c0-20,6.7-39.8,19.1-55.5c13.6-17.1,32.8-28.3,54.1-32.5
						c7.4-1.4,15-1.4,22.5-1.4c21.9,0,43.9,0,65.8,0c59.2,0,118.4,0,177.7,0c6.2,0,12.4,0,18.7,0c14.6,0,28.8,3,41.9,9.6
						c18.9,9.6,34.2,26.1,42.2,45.7c5.3,13.1,6.6,26.5,6.6,40.5c0,31.9,0,63.9,0,95.8c0,9.7,15,9.7,15,0c0-24.5,0-49,0-73.6
						c0-9.6,0-19.2,0-28.8c0-21.1-6.4-42-18.4-59.3c-20.3-29.4-53.5-45-88.8-45c-19.6,0-39.2,0-58.8,0c-60.3,0-120.7,0-181,0
						c-18.4,0-37.1-1.1-55,3.7c-44.9,12-76.1,54.4-76.4,100.4c-0.2,34.2,0,68.4,0,102.5c0,4.1,3.4,7.5,7.5,7.5c30.9,0,61.9,0,92.8,0
						c63.5,0,127,0,190.5,0c52.1,0,104.1,0,156.2,0c8,0,16,0,24,0C497.5,445.7,497.5,430.7,487.8,430.7z"/>
				</g>
			</g>
			<g>
				<g>
					<g>
						<g>
							<path d="M26.2,375.9c30.9-7.1,62.8-17.8,94.8-12.6c18.5,3,35.9,8.9,55,9.5c18.9,0.5,36.8-4.4,55.1-8.4
								c15.1-3.4,31.1-3.4,46.4-0.7c7.1,1.2,14.1,3.1,21.1,4.7c23.1,5.3,45.7,5.5,68.9,0.2c6.7-1.5,13.3-3.2,20-4.6
								c15.2-3.1,31.2-2.9,46.4,0c12.7,2.4,25.2,5.8,37.8,8.6c4.8,1.1,9.5,2.2,14.3,3.3c9.4,2.2,13.4-12.3,4-14.5
								c-31.1-7.2-62.9-17.5-95.2-13.7c-18.5,2.2-36.1,8.8-54.8,9.9c-18.9,1.1-36.6-3.7-54.8-7.7c-15.3-3.4-31.2-3.9-46.8-1.9
								c-8.5,1.1-16.8,3.2-25.2,5.1c-9.8,2.3-19.5,4.2-29.6,4.6c-11.8,0.5-23.3-1-34.8-3.7c-22.3-5.1-43.9-9.2-66.9-5.8
								c-14,2-27.8,5.9-41.5,9c-6,1.4-12,2.8-18,4.1C12.8,363.7,16.8,378.1,26.2,375.9L26.2,375.9z"/>
						</g>
					</g>
				</g>
			</g>
		</g>
		<g>
			<g>
				<path d="M48.7,281c0-46.3,0-92.7,0-139c0-37.8,37-60.7,71.6-60.7c16,0,32,0,48,0c61.2,0,122.5,0,183.7,0c13.9,0,27.8-0.1,41.7,0
					c21.8,0.2,44.7,9.6,58.2,27.2c8.3,10.8,11.4,23.1,11.4,36.5c0,45.3,0,90.7,0,136c0,9.7,15,9.7,15,0c0-46.3,0-92.7,0-139
					c0-44.8-41.4-74-83.1-75.6c-14.1-0.6-28.3,0-42.4,0c-61.2,0-122.5,0-183.7,0c-16.2,0-32.5,0-48.7,0c-41.4,0-83.2,27.1-86.6,70.9
					c-0.6,7.2-0.1,14.6-0.1,21.8c0,14.7,0,29.4,0,44.1c0,25.5,0,50.9,0,76.4c0,0.5,0,1,0,1.5C33.7,290.7,48.7,290.7,48.7,281
					L48.7,281z"/>
			</g>
		</g>
	</g>
	<g>
		<g>
			<path d="M229.9,231.6c-24.2,0-48.4,0-72.6,0c-11,0-22,0-33,0c-3.4,0-6.1-1.4-6.1-5.2c0-5.3,0-10.7,0-16c0-12.3,0-24.7,0-37
				c0-4.4,4-4.7,7.3-4.7c4.6,0,9.3,0,13.9,0c28.5,0,57,0,85.5,0c3.8,0,9.3-0.8,9.6,4.7c0.3,5.5,0,11.1,0,16.6c0,9.4,0,18.7,0,28.1
				C234.5,222.2,236.3,231.2,229.9,231.6c-9.6,0.5-9.7,15.5,0,15c11-0.6,19.7-8.8,19.7-20c0-5.1,0-10.2,0-15.3c0-12.6,0-25.2,0-37.9
				c0-10.7-8.9-19.8-19.7-19.8c-2.7,0-5.3,0-8,0c-14,0-28,0-42,0c-14.9,0-29.8,0-44.7,0c-11.9,0-25.2-1-30.6,12.6
				c-1.9,4.8-1.3,10.2-1.3,15.2c0,7.7,0,15.4,0,23.1c0,6.6,0,13.1,0,19.7c0,8.2,2.6,15,9.7,19.7c6.1,4,15.9,2.7,22.9,2.7
				c12.3,0,24.7,0,37,0c19,0,38,0,57,0C239.6,246.6,239.6,231.6,229.9,231.6z"/>
		</g>
	</g>
	<g>
		<g>
			<path d="M389.1,231.6c-24.2,0-48.4,0-72.6,0c-11,0-22,0-33,0c-3.4,0-6.1-1.4-6.1-5.2c0-5.3,0-10.7,0-16c0-12.3,0-24.7,0-37
				c0-4.4,4-4.7,7.3-4.7c4.6,0,9.3,0,13.9,0c28.5,0,57,0,85.5,0c3.8,0,9.3-0.8,9.6,4.7c0.3,5.5,0,11.1,0,16.6c0,9.4,0,18.7,0,28.1
				C393.8,222.2,395.5,231.2,389.1,231.6c-9.6,0.5-9.7,15.5,0,15c11-0.6,19.7-8.8,19.7-20c0-5.1,0-10.2,0-15.3c0-12.6,0-25.2,0-37.9
				c0-10.7-8.9-19.8-19.7-19.8c-2.7,0-5.3,0-8,0c-14,0-28,0-42,0c-14.9,0-29.8,0-44.7,0c-11.9,0-25.2-1-30.6,12.6
				c-1.9,4.8-1.3,10.2-1.3,15.2c0,7.7,0,15.4,0,23.1c0,6.6,0,13.1,0,19.7c0,8.2,2.6,15,9.7,19.7c6.1,4,15.9,2.7,22.9,2.7
				c12.3,0,24.7,0,37,0c19,0,38,0,57,0C398.8,246.6,398.8,231.6,389.1,231.6z"/>
		</g>
	</g>
</g>
</svg>
